<?xml version="1.0" encoding="utf-8"?>
<!-- Generator: Adobe Illustrator 28.0.0, SVG Export Plug-In . SVG Version: 6.00 Build 0)  -->
<svg version="1.1" id="Layer_1" xmlns="http://www.w3.org/2000/svg" xmlns:xlink="http://www.w3.org/1999/xlink" x="0px" y="0px"
	 viewBox="0 0 792 116.57" style="enable-background:new 0 0 792 116.57;" xml:space="preserve">
<style type="text/css">
	.st0{fill:#FFFFFF;}
	.st1{fill:#FED506;}
</style>
<g>
	<g>
		<path class="st0" d="M400.73,44.88c-13.29,0-20.79-8.37-21.11-8.72l-0.58,0.5l-0.59-0.52c-0.01,0.01-0.24,0.25-0.62,0.62
			l-0.13-0.18l-0.54,0.79c-2.74,2.41-9.75,7.51-19.98,7.51c-13.29,0-20.79-8.37-21.11-8.72l-0.58,0.5l-0.59-0.52
			c-0.01,0.01-0.24,0.25-0.62,0.62l-0.13-0.18l-0.55,0.79c-2.74,2.41-9.75,7.51-19.98,7.51c-13.29,0-20.79-8.37-21.11-8.72
			l-0.58,0.5l-0.59-0.52c-0.01,0.01-0.24,0.25-0.62,0.62l-0.13-0.18l-0.55,0.79c-2.74,2.41-9.75,7.51-19.98,7.51
			c-13.29,0-20.79-8.37-21.11-8.72l-0.58,0.5l-0.59-0.52c-0.01,0.01-0.24,0.25-0.62,0.62l-0.13-0.18l-0.55,0.79
			c-2.74,2.41-9.75,7.51-19.98,7.51c-13.29,0-20.79-8.37-21.11-8.72l-0.58,0.5l-0.59-0.52c-0.01,0.01-0.24,0.25-0.62,0.62
			l-0.13-0.18l-0.54,0.79c-2.74,2.41-9.75,7.51-19.98,7.51c-13.29,0-20.79-8.37-21.11-8.72l-0.58,0.5l-0.59-0.52
			c-0.01,0.01-0.24,0.25-0.62,0.62l-0.13-0.18l-0.55,0.79c-2.74,2.41-9.75,7.51-19.98,7.51c-13.29,0-20.79-8.37-21.11-8.72
			l-0.58,0.5l-0.59-0.52c-0.01,0.01-0.24,0.25-0.62,0.62l-0.13-0.18l-0.54,0.79c-2.74,2.41-9.75,7.51-19.98,7.51
			c-13.29,0-20.79-8.37-21.11-8.72l-0.58,0.5l-0.59-0.52c-0.01,0.01-0.24,0.25-0.62,0.62l-0.13-0.18l-0.55,0.79
			c-2.74,2.41-9.75,7.51-19.98,7.51c-13.29,0-20.79-8.37-21.11-8.72l-1.38,1.19l-0.55-0.78l-2.13,3.09l-1.04,0.9
			c0.03,0.03,0.12,0.13,0.24,0.26L12.17,61.46l1.62,1.96c0.23,0.27,5.66,6.71,15.52,6.71c9.79,0,15.51-6.36,15.75-6.63l1.76-1.99
			l-9.07-12.9c3.94,1.7,8.8,3.01,14.57,3.01c4.3,0,8.11-0.73,11.42-1.81l-8.01,11.65l1.62,1.96c0.23,0.27,5.66,6.71,15.52,6.71
			c9.79,0,15.51-6.36,15.75-6.63l1.76-1.99l-9.07-12.9c3.94,1.7,8.8,3.01,14.57,3.01c4.3,0,8.11-0.73,11.42-1.81l-8.01,11.65
			l1.62,1.96c0.23,0.27,5.66,6.71,15.52,6.71c9.79,0,15.51-6.36,15.75-6.63l1.76-1.99l-9.07-12.9c3.94,1.7,8.8,3.01,14.57,3.01
			c4.3,0,8.11-0.73,11.42-1.81l-8.01,11.65l1.62,1.96c0.23,0.27,5.66,6.71,15.52,6.71c9.79,0,15.51-6.36,15.75-6.63l1.76-1.99
			l-9.07-12.9c3.94,1.7,8.8,3.01,14.57,3.01c4.3,0,8.11-0.73,11.42-1.81l-8.01,11.65l1.62,1.96c0.23,0.27,5.66,6.71,15.52,6.71
			c9.79,0,15.51-6.36,15.75-6.63l1.76-1.99l-9.07-12.9c3.94,1.7,8.8,3.01,14.57,3.01c4.3,0,8.11-0.73,11.42-1.81l-8.01,11.65
			l1.62,1.96c0.23,0.27,5.66,6.71,15.52,6.71c9.79,0,15.51-6.36,15.75-6.63l1.76-1.99l-9.07-12.9c3.94,1.7,8.8,3.01,14.57,3.01
			c4.3,0,8.11-0.73,11.42-1.81l-8.01,11.65l1.62,1.96c0.23,0.27,5.66,6.71,15.52,6.71c9.79,0,15.51-6.36,15.75-6.63l1.76-1.99
			l-9.07-12.9c3.94,1.7,8.8,3.01,14.56,3.01c4.3,0,8.11-0.73,11.42-1.81l-8.01,11.65l1.62,1.96c0.23,0.27,5.66,6.71,15.52,6.71
			c9.79,0,15.51-6.36,15.75-6.63l1.76-1.99l-9.07-12.9c3.94,1.7,8.8,3.01,14.57,3.01c4.3,0,8.11-0.73,11.42-1.81l-8.01,11.65
			l1.62,1.96c0.23,0.27,5.66,6.71,15.52,6.71c9.79,0,15.51-6.36,15.75-6.63l1.76-1.99l-9.07-12.9c3.94,1.7,8.8,3.01,14.56,3.01
			c16.45,0,25.93-10.57,26.33-11.02L422,36.14C421.92,36.23,414.04,44.88,400.73,44.88 M38.01,60.7c-1.8,1.23-4.77,2.69-8.7,2.69
			c-3.9,0-6.76-1.44-8.46-2.65l8.5-12.36L38.01,60.7z M81.56,60.7c-1.8,1.23-4.77,2.69-8.7,2.69c-3.9,0-6.76-1.44-8.46-2.65
			l8.5-12.36L81.56,60.7z M125.12,60.7c-1.8,1.23-4.77,2.69-8.7,2.69c-3.9,0-6.76-1.44-8.46-2.65l8.5-12.36L125.12,60.7z
			 M168.67,60.7c-1.8,1.23-4.77,2.69-8.7,2.69c-3.9,0-6.76-1.44-8.46-2.65l8.5-12.36L168.67,60.7z M212.22,60.7
			c-1.8,1.23-4.77,2.69-8.7,2.69c-3.9,0-6.76-1.44-8.46-2.65l8.5-12.36L212.22,60.7z M255.77,60.7c-1.8,1.23-4.77,2.69-8.7,2.69
			c-3.9,0-6.76-1.44-8.46-2.65l8.5-12.36L255.77,60.7z M299.33,60.7c-1.8,1.23-4.77,2.69-8.7,2.69c-3.9,0-6.76-1.44-8.47-2.65
			l8.5-12.36L299.33,60.7z M342.88,60.7c-1.8,1.23-4.77,2.69-8.7,2.69c-3.9,0-6.76-1.44-8.46-2.65l8.5-12.36L342.88,60.7z
			 M386.43,60.7c-1.8,1.23-4.77,2.69-8.7,2.69c-3.9,0-6.76-1.44-8.47-2.65l8.5-12.36L386.43,60.7z"/>
		<path class="st0" d="M377.11,75.4c-13.29,0-20.79-8.37-21.11-8.72l-0.58,0.5l-0.59-0.52c-0.08,0.09-7.97,8.74-21.27,8.74
			c-13.29,0-20.79-8.37-21.11-8.72l-0.58,0.5l-0.59-0.52c-0.08,0.09-7.97,8.74-21.27,8.74c-13.29,0-20.79-8.37-21.11-8.72l-0.58,0.5
			l-0.59-0.52c-0.08,0.09-7.97,8.74-21.27,8.74c-13.29,0-20.79-8.37-21.11-8.72l-0.58,0.5l-0.59-0.52
			c-0.08,0.09-7.97,8.74-21.27,8.74c-13.29,0-20.79-8.37-21.11-8.72l-0.58,0.5l-0.59-0.52c-0.08,0.09-7.97,8.74-21.27,8.74
			c-13.29,0-20.79-8.37-21.11-8.72l-0.58,0.5l-0.59-0.52c-0.08,0.09-7.97,8.74-21.27,8.74c-13.29,0-20.79-8.37-21.11-8.72l-0.58,0.5
			l-0.59-0.52c-0.08,0.09-7.97,8.74-21.27,8.74c-13.29,0-20.79-8.37-21.11-8.72l-0.58,0.5l-0.59-0.52
			C49.89,66.75,42,75.4,28.69,75.4c-13.29,0-20.79-8.37-21.11-8.72L2.5,71.09c0.39,0.45,9.73,11.04,26.2,11.04
			c10.03,0,17.46-3.93,21.83-7.1c4.33,3.17,11.7,7.1,21.73,7.1c10.04,0,17.46-3.93,21.83-7.1c4.33,3.17,11.7,7.1,21.73,7.1
			c10.03,0,17.46-3.93,21.83-7.1c4.33,3.17,11.7,7.1,21.73,7.1c10.04,0,17.46-3.93,21.83-7.1c4.33,3.17,11.7,7.1,21.73,7.1
			c10.03,0,17.46-3.93,21.83-7.1c4.33,3.17,11.7,7.1,21.73,7.1c10.04,0,17.46-3.93,21.83-7.1c4.33,3.17,11.7,7.1,21.73,7.1
			c10.03,0,17.46-3.93,21.83-7.1c4.33,3.17,11.7,7.1,21.73,7.1c10.04,0,17.46-3.93,21.83-7.1c4.33,3.17,11.7,7.1,21.73,7.1
			c16.45,0,25.93-10.57,26.33-11.02l-5.05-4.46C398.31,66.75,390.42,75.4,377.11,75.4"/>
		<path class="st0" d="M792,71.6c-3.26,3.01-11.9,9.59-24.88,9.59c-10.04,0-17.41-3.93-21.73-7.1c-4.37,3.17-11.79,7.1-21.82,7.1
			c-10.03,0-17.39-3.93-21.73-7.1c-4.36,3.17-11.79,7.1-21.82,7.1c-10.03,0-17.39-3.93-21.72-7.1c-4.37,3.17-11.8,7.1-21.84,7.1
			c-10.03,0-17.39-3.93-21.72-7.1c-4.37,3.17-11.8,7.1-21.82,7.1c-10.04,0-17.41-3.93-21.73-7.1c-4.37,3.17-11.79,7.1-21.82,7.1
			c-10.03,0-17.39-3.93-21.73-7.1c-4.36,3.17-11.79,7.1-21.82,7.1c-10.03,0-17.39-3.93-21.72-7.1c-4.37,3.17-11.8,7.1-21.84,7.1
			c-10.03,0-17.39-3.93-21.72-7.1c-4.37,3.17-11.8,7.1-21.82,7.1c-16.47,0-25.81-10.59-26.2-11.04l5.09-4.42
			c0.31,0.36,7.82,8.72,21.11,8.72c13.3,0,21.19-8.65,21.27-8.74l0.59,0.52l0.59-0.5c0.3,0.36,7.81,8.72,21.1,8.72
			c13.31,0,21.2-8.65,21.28-8.74l0.59,0.52l0.58-0.5c0.31,0.36,7.82,8.72,21.11,8.72c13.31,0,21.2-8.65,21.28-8.74l0.59,0.52
			l0.58-0.5c0.31,0.36,7.82,8.72,21.11,8.72c13.3,0,21.2-8.65,21.27-8.74l0.6,0.52l0.58-0.5c0.31,0.36,7.82,8.72,21.11,8.72
			c13.3,0,21.19-8.65,21.27-8.74l0.59,0.52l0.58-0.5c0.31,0.36,7.82,8.72,21.11,8.72c13.31,0,21.2-8.65,21.28-8.74l0.59,0.52
			l0.58-0.5c0.31,0.36,7.82,8.72,21.11,8.72c13.31,0,21.2-8.65,21.28-8.74l0.59,0.52l0.58-0.5c0.31,0.36,7.82,8.72,21.11,8.72
			c13.3,0,21.2-8.65,21.27-8.74l0.6,0.52l0.58-0.5c0.31,0.36,7.82,8.72,21.11,8.72c11.72,0,19.23-6.72,20.91-8.37L792,71.6z"/>
		<path class="st0" d="M775.01,48.61c0.22,0.09,0.45,0.2,0.68,0.28l-8.84-12.29c-0.06,0.05-0.12,0.1-0.19,0.17l-0.13-0.19l-0.54,0.8
			c-2.74,2.41-9.75,7.51-19.97,7.51c-13.29,0-20.79-8.36-21.11-8.72l-0.58,0.5l-0.59-0.52c-0.02,0.01-0.24,0.25-0.62,0.62L723,36.58
			l-0.56,0.8c-2.73,2.41-9.74,7.51-19.97,7.51c-13.29,0-20.79-8.36-21.11-8.72l-0.58,0.5l-0.59-0.52c-0.01,0.01-0.24,0.25-0.62,0.62
			l-0.13-0.19l-0.54,0.8c-2.74,2.41-9.75,7.51-19.99,7.51c-13.29,0-20.79-8.36-21.11-8.72l-0.58,0.5l-0.59-0.52
			c-0.01,0.01-0.24,0.25-0.62,0.62l-0.13-0.19l-0.54,0.8c-2.74,2.41-9.75,7.51-19.97,7.51c-13.29,0-20.79-8.36-21.11-8.72l-0.58,0.5
			l-0.6-0.52c-0.01,0.01-0.23,0.25-0.62,0.62l-0.13-0.19l-0.54,0.8c-2.74,2.41-9.75,7.51-19.97,7.51c-13.29,0-20.79-8.36-21.11-8.72
			l-0.58,0.5l-0.6-0.52c-0.01,0.01-0.23,0.25-0.61,0.62l-0.13-0.19l-0.56,0.8c-2.73,2.41-9.74,7.51-19.97,7.51
			c-13.29,0-20.79-8.36-21.11-8.72l-0.58,0.5l-0.59-0.52c-0.01,0.01-0.24,0.25-0.62,0.62l-0.13-0.19l-0.54,0.8
			c-2.74,2.41-9.75,7.51-19.99,7.51c-13.29,0-20.79-8.36-21.11-8.72l-0.58,0.5l-0.59-0.52c-0.01,0.01-0.24,0.25-0.62,0.62
			l-0.13-0.19l-0.54,0.8c-2.74,2.41-9.75,7.51-19.97,7.51c-13.29,0-20.79-8.36-21.11-8.72l-1.38,1.19l-0.56-0.77l-2.13,3.1
			l-1.04,0.9c0.03,0.03,0.13,0.13,0.24,0.25l-14.18,20.62l1.62,1.97c0.23,0.27,5.67,6.71,15.52,6.71c9.8,0,15.51-6.36,15.75-6.63
			l1.76-2l-9.08-12.9c3.94,1.71,8.8,3.02,14.57,3.02c4.3,0,8.11-0.74,11.41-1.82l-8,11.65l1.62,1.97c0.23,0.27,5.67,6.71,15.52,6.71
			c9.78,0,15.51-6.36,15.74-6.63l1.76-2l-9.07-12.9c3.93,1.71,8.8,3.02,14.56,3.02c4.3,0,8.12-0.74,11.43-1.82l-8,11.65l1.62,1.97
			c0.23,0.27,5.67,6.71,15.52,6.71c9.78,0,15.51-6.36,15.74-6.63l1.76-2l-9.07-12.9c3.93,1.71,8.8,3.02,14.56,3.02
			c4.3,0,8.12-0.74,11.43-1.82l-8.01,11.65l1.63,1.97c0.22,0.27,5.66,6.71,15.51,6.71c9.8,0,15.51-6.36,15.75-6.63l1.76-2
			l-9.08-12.9c3.94,1.71,8.81,3.02,14.57,3.02c4.3,0,8.11-0.74,11.43-1.82l-8.01,11.65l1.62,1.97c0.23,0.27,5.67,6.71,15.52,6.71
			c9.8,0,15.51-6.36,15.75-6.63l1.76-2l-9.08-12.9c3.94,1.71,8.8,3.02,14.57,3.02c4.3,0,8.11-0.74,11.42-1.82l-8,11.65l1.62,1.97
			c0.23,0.27,5.67,6.71,15.52,6.71c9.78,0,15.51-6.36,15.74-6.63l1.76-2l-9.07-12.9c3.93,1.71,8.8,3.02,14.56,3.02
			c4.3,0,8.12-0.74,11.43-1.82l-8,11.65l1.62,1.97c0.23,0.27,5.67,6.71,15.52,6.71c9.78,0,15.51-6.36,15.74-6.63l1.76-2l-9.07-12.9
			c3.93,1.71,8.8,3.02,14.56,3.02c4.3,0,8.12-0.74,11.43-1.82l-8,11.65l1.62,1.97c0.22,0.27,5.66,6.71,15.51,6.71
			c9.8,0,15.51-6.36,15.75-6.63l1.76-2l-9.08-12.9c3.94,1.71,8.81,3.02,14.57,3.02c4.3,0,8.11-0.74,11.43-1.82l-8.01,11.65
			l1.62,1.97c0.23,0.27,5.67,6.71,15.52,6.71c9.8,0,15.51-6.36,15.75-6.63l1.76-2L775.01,48.61z M426.86,60.7
			c-1.8,1.23-4.76,2.68-8.7,2.68c-3.9,0-6.75-1.43-8.47-2.65l8.5-12.35L426.86,60.7z M470.41,60.7c-1.8,1.23-4.76,2.68-8.7,2.68
			c-3.91,0-6.77-1.43-8.47-2.65l8.5-12.35L470.41,60.7z M513.97,60.7c-1.8,1.23-4.76,2.68-8.7,2.68c-3.91,0-6.77-1.43-8.47-2.65
			l8.49-12.35L513.97,60.7z M557.51,60.7c-1.79,1.23-4.76,2.68-8.7,2.68c-3.9,0-6.75-1.43-8.47-2.65l8.5-12.35L557.51,60.7z
			 M601.07,60.7c-1.8,1.23-4.77,2.68-8.7,2.68c-3.9,0-6.75-1.43-8.47-2.65l8.5-12.35L601.07,60.7z M644.62,60.7
			c-1.8,1.23-4.76,2.68-8.7,2.68c-3.91,0-6.77-1.43-8.47-2.65l8.5-12.35L644.62,60.7z M688.18,60.7c-1.8,1.23-4.76,2.68-8.7,2.68
			c-3.91,0-6.77-1.43-8.47-2.65l8.49-12.35L688.18,60.7z M731.72,60.7c-1.79,1.23-4.76,2.68-8.7,2.68c-3.9,0-6.75-1.43-8.47-2.65
			l8.5-12.35L731.72,60.7z M766.58,63.39c-3.9,0-6.75-1.43-8.47-2.65l8.5-12.35l8.66,12.32C773.47,61.93,770.51,63.39,766.58,63.39z
			"/>
	</g>
	<path class="st1" d="M418.6,81.11c-16.97-0.11-26.53-11.09-26.92-11.56l5.28-4.52c0.32,0.37,8,9.04,21.69,9.13
		c13.71,0.09,21.9-8.78,21.98-8.87l5.18,4.63C445.39,70.39,435.55,81.22,418.6,81.11"/>
</g>
</svg>
